<svg xmlns="http://www.w3.org/2000/svg" viewBox="0 0 480 480" role="img" aria-label="From prompt to first token"><title>From prompt to first token</title><desc>The prompt is ready. The weights are already resident; no answer tokens have been produced.</desc><style>
    text{fill:#F8FAFC;font-family:Arial,sans-serif}rect{fill:#1E293B;stroke:#475569;stroke-width:2}.active rect{fill:#FEF3C7;stroke:#B45309;stroke-width:3}.wire{fill:none;stroke:#94A3B8;stroke-width:3}.wire.lit{stroke:#B45309;stroke-width:5}.budget-0{fill:#1E293B}.budget-1{fill:#94A3B8}.budget-2{fill:#E2E8F0}.budget-3{fill:#F59E0B}
  </style><path class="wire " d="M240 82V120 M240 196V238"/><g class="active"><rect x="60" y="20" width="360" height="54" rx="10"/><text x="240" y="53" font-size="20" text-anchor="middle">Repository prompt</text></g><g class="idle"><rect x="60" y="120" width="360" height="76" rx="10"/><text x="240" y="153" font-size="20" text-anchor="middle">Prefill</text><text x="240" y="180" font-size="17" text-anchor="middle">Read input · construct KV state</text></g><g class="idle"><rect x="60" y="238" width="360" height="76" rx="10"/><text x="240" y="271" font-size="20" text-anchor="middle">Decode</text><text x="240" y="298" font-size="17" text-anchor="middle">First token → continued answer</text></g><text x="24" y="350" font-size="20" text-anchor="start">Answer:</text><g class="idle"><rect x="24" y="365" width="106" height="54" rx="10"/><text x="77" y="398" font-size="20" text-anchor="middle">…</text></g><g class="idle"><rect x="138" y="365" width="106" height="54" rx="10"/><text x="191" y="398" font-size="20" text-anchor="middle">…</text></g><g class="idle"><rect x="252" y="365" width="106" height="54" rx="10"/><text x="305" y="398" font-size="20" text-anchor="middle">…</text></g><g class="idle"><rect x="366" y="365" width="106" height="54" rx="10"/><text x="419" y="398" font-size="20" text-anchor="middle">…</text></g><text x="24" y="453" font-size="19" text-anchor="start">KV: no prompt state yet</text></svg>
